<svg width="19" height="18" viewBox="0 0 19 18" fill="none" xmlns="http://www.w3.org/2000/svg">
    <path fill-rule="evenodd" clip-rule="evenodd" d="M9.25 0C7.07756 0 5.31126 1.65838 4.93939 3.70277C4.83862 3.69583 4.73699 3.69231 4.63462 3.69231C2.21306 3.69231 0.25 5.65537 0.25 8.07692C0.25 9.55375 0.980154 10.8591 2.09734 11.6531C1.80131 12.2438 1.63462 12.9106 1.63462 13.6154C1.63462 16.037 3.59768 18 6.01923 18C7.29842 18 8.44905 17.4521 9.25 16.5796C10.051 17.4521 11.2016 18 12.4808 18C14.9024 18 16.8654 16.037 16.8654 13.6154C16.8654 12.9106 16.6987 12.2438 16.4026 11.6531C17.5198 10.8591 18.25 9.55375 18.25 8.07692C18.25 5.65537 16.287 3.69231 13.8654 3.69231C13.763 3.69231 13.6614 3.69583 13.5606 3.70277C13.1888 1.65838 11.4225 0 9.25 0ZM9.25 12.2308C10.7794 12.2308 12.0192 10.991 12.0192 9.46154C12.0192 7.93209 10.7794 6.69231 9.25 6.69231C7.72055 6.69231 6.48077 7.93209 6.48077 9.46154C6.48077 10.991 7.72055 12.2308 9.25 12.2308Z" fill="#753535"/>
</svg>