<svg width="17" height="17" viewBox="0 0 17 17" fill="none" xmlns="http://www.w3.org/2000/svg">
<path d="M7.91457 15.2209C7.91457 14.8934 7.6525 14.6279 7.32921 14.6279C7.00593 14.6279 6.74385 14.8934 6.74385 15.2209C6.74385 15.5484 7.00593 15.814 7.32921 15.814C7.6525 15.814 7.91457 15.5484 7.91457 15.2209ZM13.3779 15.2209C13.3779 14.8934 13.1159 14.6279 12.7926 14.6279C12.4693 14.6279 12.2072 14.8934 12.2072 15.2209C12.2072 15.5484 12.4693 15.814 12.7926 15.814C13.1159 15.814 13.3779 15.5484 13.3779 15.2209ZM5.85361 11.0698H11.0472C11.8632 11.0697 12.4634 10.9392 12.9183 10.7254C13.3666 10.5146 13.7033 10.2091 13.9755 9.8065C14.5465 8.96215 14.8243 7.72386 15.1538 6.06536L15.2705 5.45921C15.2994 5.29372 15.3177 5.16048 15.3253 5.04765C15.3326 4.94123 15.3273 4.88005 15.3208 4.84611C15.3155 4.81917 15.3107 4.81293 15.3101 4.81214C15.3095 4.81183 15.3086 4.81176 15.3078 4.81136C15.2952 4.80487 15.2581 4.78944 15.1737 4.77585C14.9875 4.74591 14.7206 4.74419 14.2712 4.74419H4.54189L5.85361 11.0698ZM14.5487 15.2209C14.5487 16.2035 13.7624 17 12.7926 17C11.8227 17 11.0365 16.2035 11.0365 15.2209C11.0365 15.0127 11.0738 14.8136 11.1386 14.6279H8.98316C9.04803 14.8136 9.0853 15.0127 9.0853 15.2209C9.0853 16.2035 8.29907 17 7.32921 17C6.35935 17 5.57313 16.2035 5.57313 15.2209C5.57313 15.0127 5.61039 14.8136 5.67526 14.6279H4.13793C3.61507 14.6278 3.23169 14.1874 3.23169 13.6959C3.23172 12.6459 3.82831 11.7193 4.705 11.303L3.25608 4.31177C3.24651 4.27743 3.23728 4.24255 3.23397 4.20599L2.76141 1.92655C2.64999 1.49102 2.26265 1.18606 1.81782 1.18605H1.08536C0.762075 1.18605 0.5 0.920541 0.5 0.593023C0.5 0.265506 0.762075 0 1.08536 0H1.81782C2.74104 8.89996e-06 3.55348 0.596614 3.8483 1.46866L3.90012 1.64703L3.9047 1.66865L4.29646 3.55814H14.2712C14.6805 3.55814 15.0581 3.55633 15.3573 3.60447C15.6406 3.65006 15.9341 3.75212 16.163 3.99982L16.2567 4.11487L16.3337 4.23687C16.4931 4.52543 16.5135 4.83922 16.4938 5.1295C16.4828 5.29012 16.4569 5.46952 16.4229 5.66538L16.3017 6.29933C15.9853 7.89192 15.6736 9.39376 14.9412 10.4767C14.5617 11.0379 14.0683 11.493 13.4115 11.8018C12.7614 12.1074 11.982 12.2558 11.0472 12.2558H5.74386L5.61048 12.2628C5.02499 12.3259 4.52984 12.8005 4.42451 13.4419H12.7926C13.7624 13.4419 14.5487 14.2384 14.5487 15.2209Z" fill="#ECF3EC"/>
</svg>
