<svg width="17" height="13" viewBox="0 0 17 13" fill="none" xmlns="http://www.w3.org/2000/svg">
<path d="M15.3815 6.47807C15.379 6.46803 15.3735 6.45363 15.3619 6.43044C15.3447 6.39604 15.3217 6.35723 15.2878 6.30494L15.1483 6.09778C14.657 5.38107 13.7894 4.25974 12.6352 3.32233C11.4798 2.38398 10.0767 1.66129 8.5 1.66129C6.92332 1.66129 5.52019 2.38398 4.36483 3.32233C3.35493 4.14255 2.56471 5.10365 2.05378 5.81124L1.85174 6.09778C1.73031 6.27492 1.67256 6.36155 1.63808 6.43044C1.61501 6.47655 1.61628 6.48756 1.61628 6.5L1.61846 6.52193C1.62101 6.53197 1.62648 6.54637 1.63808 6.56956C1.67256 6.63845 1.73031 6.72507 1.85174 6.90222L2.05378 7.18876C2.56471 7.89635 3.35493 8.85745 4.36483 9.67767C5.52019 10.616 6.92332 11.3387 8.5 11.3387C10.0767 11.3387 11.4798 10.616 12.6352 9.67767C13.7894 8.74026 14.657 7.61893 15.1483 6.90222L15.2878 6.69506C15.3217 6.64277 15.3447 6.60396 15.3619 6.56956C15.385 6.52345 15.3837 6.51244 15.3837 6.5L15.3815 6.47807ZM10.1744 6.5C10.1744 5.53796 9.42476 4.75806 8.5 4.75806C7.57524 4.75806 6.82558 5.53796 6.82558 6.5C6.82558 7.46204 7.57524 8.24194 8.5 8.24194C9.42476 8.24194 10.1744 7.46204 10.1744 6.5ZM11.2907 6.5C11.2907 8.10341 10.0413 9.40323 8.5 9.40323C6.95874 9.40323 5.7093 8.10341 5.7093 6.5C5.7093 4.89659 6.95874 3.59677 8.5 3.59677C10.0413 3.59677 11.2907 4.89659 11.2907 6.5ZM16.4891 6.6686C16.4534 6.9385 16.3361 7.15811 16.2093 7.35282L16.0567 7.57661C15.5314 8.3429 14.5923 9.5615 13.3219 10.5932C12.0526 11.6241 10.4129 12.5 8.5 12.5C6.58709 12.5 4.94735 11.6241 3.67805 10.5932C2.56629 9.69031 1.70816 8.64428 1.15916 7.88357L0.943314 7.57661C0.771501 7.32597 0.560864 7.04665 0.510901 6.6686L0.5 6.5C0.5 6.03387 0.746914 5.70989 0.943314 5.42339L1.15916 5.11643C1.70816 4.35572 2.56629 3.30969 3.67805 2.40675C4.94735 1.3759 6.58709 0.5 8.5 0.5C10.4129 0.5 12.0526 1.3759 13.3219 2.40675C14.5923 3.4385 15.5314 4.6571 16.0567 5.42339L16.2093 5.64718C16.3615 5.88092 16.5 6.15053 16.5 6.5L16.4891 6.6686Z" fill="#3D853C"/>
</svg>
